<?xml version="1.0" encoding="utf-8"?>
<!-- Svg Vector Icons : http://www.sfont.cn -->
<!DOCTYPE svg PUBLIC "-//W3C//DTD SVG 1.1//EN" "http://www.w3.org/Graphics/SVG/1.1/DTD/svg11.dtd">
<svg version="1.1" xmlns="http://www.w3.org/2000/svg" xmlns:xlink="http://www.w3.org/1999/xlink" x="0px" y="0px" viewBox="0 0 1000 1000" enable-background="new 0 0 1000 1000" xml:space="preserve">
<metadata> Svg Vector Icons : http://www.sfont.cn </metadata>
<g><path d="M500,10c-45.1,0-81.7,36.6-81.7,81.7c0,45.1,36.6,81.7,81.7,81.7s81.7-36.6,81.7-81.7C581.7,46.6,545.1,10,500,10L500,10z M785.8,132.5c-45.1,0-81.7,36.6-81.7,81.7c0,45.1,36.6,81.7,81.7,81.7c45.1,0,81.7-36.6,81.7-81.7C867.5,169.1,830.9,132.5,785.8,132.5L785.8,132.5z"/><path d="M785.8,704.2c-45.1,0-81.7,36.6-81.7,81.7c0,45.1,36.6,81.7,81.7,81.7c45.1,0,81.7-36.6,81.7-81.7C867.5,740.7,830.9,704.2,785.8,704.2L785.8,704.2z M908.3,418.3c-45.1,0-81.7,36.6-81.7,81.7c0,45.1,36.6,81.7,81.7,81.7c45.1,0,81.7-36.6,81.7-81.7C990,454.9,953.4,418.3,908.3,418.3L908.3,418.3z"/><path d="M214.2,704.2c-45.1,0-81.7,36.6-81.7,81.7c0,45.1,36.6,81.7,81.7,81.7s81.7-36.6,81.7-81.7C295.8,740.7,259.3,704.2,214.2,704.2L214.2,704.2z M500,826.7c-45.1,0-81.7,36.6-81.7,81.7c0,45.1,36.6,81.7,81.7,81.7s81.7-36.6,81.7-81.7C581.7,863.2,545.1,826.7,500,826.7L500,826.7z"/><path d="M214.2,132.5c-45.1,0-81.7,36.6-81.7,81.7c0,45.1,36.6,81.7,81.7,81.7s81.7-36.6,81.7-81.7C295.8,169.1,259.3,132.5,214.2,132.5L214.2,132.5z M91.7,418.3C46.6,418.3,10,454.9,10,500c0,45.1,36.6,81.7,81.7,81.7c45.1,0,81.7-36.6,81.7-81.7C173.3,454.9,136.8,418.3,91.7,418.3L91.7,418.3z"/></g>
</svg>